<?xml version="1.0" standalone="no"?>
<!DOCTYPE svg PUBLIC "-//W3C//DTD SVG 20010904//EN"
 "http://www.w3.org/TR/2001/REC-SVG-20010904/DTD/svg10.dtd">
<svg version="1.0" xmlns="http://www.w3.org/2000/svg"
 width="500.000000pt" height="500.000000pt" viewBox="0 0 500.000000 500.000000"
 preserveAspectRatio="xMidYMid meet">
<metadata>
Created by potrace 1.16, written by Peter Selinger 2001-2019
</metadata>
<g transform="translate(0.000000,500.000000) scale(0.100000,-0.100000)"
fill="#000000" stroke="none">
<path d="M1240 3376 c0 -43 -8 -44 -44 -11 -31 29 -36 30 -60 12 -14 -10 -15
-17 -7 -40 6 -16 15 -25 21 -22 5 3 10 -2 11 -12 0 -13 2 -14 6 -4 3 8 -2 20
-12 27 -20 15 -14 44 9 44 8 0 19 -6 23 -13 7 -11 67 -47 80 -47 8 0 2 37 -8
47 -15 15 -4 43 16 43 9 0 18 -8 21 -17 4 -10 12 -32 20 -50 8 -17 14 -34 14
-39 0 -4 7 -16 17 -26 15 -17 14 -18 -16 -18 -100 0 -290 -176 -295 -272 -1
-27 3 -33 18 -31 17 1 17 0 2 -15 -13 -14 -20 -14 -34 -4 -9 7 -24 15 -32 18
-8 3 -28 11 -45 19 -16 7 -38 16 -47 19 -10 3 -18 12 -18 21 0 20 28 31 43 16
10 -10 47 -16 47 -8 0 14 -37 75 -52 85 -15 11 -16 17 -7 28 15 18 35 18 43
-1 3 -8 13 -15 23 -14 14 0 15 2 3 6 -8 3 -19 12 -23 19 -10 18 -41 18 -56 0
-13 -16 1 -56 18 -56 5 0 14 -15 20 -32 9 -26 9 -30 -1 -20 -16 16 -65 16 -71
0 -8 -22 11 -58 31 -58 10 0 27 -7 38 -15 10 -8 29 -15 40 -15 12 0 24 -7 28
-15 11 -29 86 -8 86 25 0 8 -8 10 -25 6 -19 -5 -25 -2 -25 9 0 26 40 96 76
134 19 20 34 39 34 44 0 4 3 7 8 7 4 0 7 -81 7 -181 0 -167 1 -182 19 -195 28
-20 63 -17 76 5 5 11 10 51 10 89 l0 69 63 5 c150 12 223 108 168 222 -18 36
-33 51 -74 71 -66 33 -82 45 -90 70 -26 85 -35 100 -66 103 -29 3 -31 1 -31
-32z m90 -147 c0 -5 4 -7 10 -4 6 4 7 -1 3 -11 -4 -11 -8 -13 -11 -6 -2 7 -8
10 -12 7 -12 -7 -1 -35 12 -35 6 0 16 8 23 17 11 15 14 14 29 -9 36 -55 32
-152 -6 -188 -15 -14 -36 -20 -65 -20 l-42 0 -3 108 c-3 101 -4 107 -23 104
-18 -2 -17 0 5 17 22 17 35 23 73 30 4 0 7 -4 7 -10z"/>
<path d="M2150 3291 c-22 -32 -50 -93 -50 -111 0 -6 11 -22 25 -35 43 -44 101
-28 119 32 7 23 -46 143 -63 143 -6 0 -19 -13 -31 -29z"/>
<path d="M1932 3262 c-53 -2 -63 -6 -60 -20 2 -10 14 -18 31 -20 26 -3 27 -5
29 -75 2 -80 0 -202 -4 -214 -5 -20 15 -53 33 -53 32 0 21 -16 -23 -35 -114
-50 -290 -195 -304 -251 -12 -49 28 -155 58 -154 16 1 68 74 68 95 0 8 -5 15
-11 15 -8 0 -7 6 2 17 19 23 141 114 146 109 2 -2 -11 -35 -30 -72 -46 -92
-154 -342 -162 -376 -5 -19 -20 -34 -49 -48 -65 -33 -142 -109 -165 -163 -27
-63 -27 -147 0 -207 56 -124 248 -210 470 -210 77 0 109 -4 112 -12 3 -9 14
-3 30 15 16 18 28 24 32 17 5 -8 11 -8 21 1 12 10 12 14 2 21 -10 6 -7 10 10
14 17 5 22 12 19 25 -4 15 13 31 78 73 46 30 101 65 123 77 l39 23 61 -28
c135 -60 218 -79 347 -79 137 0 200 17 295 80 137 91 223 220 311 468 17 50
47 116 67 148 34 57 34 59 16 77 -42 40 -60 35 -102 -27 -45 -66 -132 -166
-139 -159 -3 2 14 44 36 92 23 48 41 88 41 91 0 4 -63 43 -71 43 -3 0 -23 -25
-43 -55 -22 -33 -41 -53 -48 -49 -7 4 -8 3 -4 -4 10 -16 -10 -49 -60 -102 -23
-25 -51 -56 -63 -70 -17 -21 -20 -22 -21 -7 0 21 94 272 114 302 12 19 23 20
147 19 74 0 144 -4 157 -8 16 -5 24 -3 28 9 4 9 5 18 2 20 -6 6 -59 12 -177
20 -56 4 -104 11 -106 16 -3 4 4 23 16 43 22 38 20 63 -10 90 -26 24 -42 12
-76 -57 l-30 -62 -54 -3 c-29 -2 -51 1 -49 5 2 4 10 21 18 36 19 38 4 81 -30
85 -22 2 -29 -5 -55 -57 l-30 -61 -167 0 c-152 0 -168 -2 -168 -17 0 -10 12
-28 27 -40 25 -22 32 -23 118 -17 51 4 104 4 118 0 l25 -6 -48 -97 c-50 -100
-97 -156 -174 -207 -21 -14 -49 -26 -62 -26 -20 0 -24 5 -24 31 0 16 4 28 9
25 13 -9 92 22 117 45 12 11 30 38 39 60 17 37 17 42 3 73 -18 37 -65 61 -103
52 -30 -8 -153 -129 -167 -165 -2 -5 -29 -37 -61 -71 -50 -53 -57 -58 -51 -33
4 15 20 54 36 86 l28 57 -20 40 c-17 34 -25 40 -52 40 -29 0 -30 1 -15 18 10
10 17 23 17 29 0 15 -35 43 -54 43 -10 0 -16 3 -14 8 57 110 53 161 -17 237
l-36 40 3 114 c1 69 -1 116 -7 118 -6 1 -39 -3 -75 -10 -68 -14 -87 -36 -40
-47 23 -5 25 -11 30 -77 l5 -72 -40 -6 c-22 -4 -48 -9 -57 -11 -16 -5 -18 10
-20 187 -2 119 -7 193 -13 194 -5 0 -38 -1 -73 -3z m286 -513 c4 -51 -12 -76
-118 -174 -52 -48 -99 -94 -103 -101 -12 -20 -66 -46 -83 -40 -16 6 -7 32 60
181 75 164 77 168 111 159 11 -3 38 -1 60 5 60 14 70 10 73 -30z m811 -246
c-29 -54 -79 -128 -111 -166 -32 -37 -58 -74 -58 -83 0 -8 -4 -12 -10 -9 -5 3
-7 20 -3 38 6 33 64 186 102 270 l22 47 55 0 56 0 -53 -97z m-817 -20 c3 -28
-26 -82 -79 -146 -26 -33 -23 -47 12 -47 18 0 38 17 72 59 45 56 73 75 73 51
0 -21 -31 -70 -43 -70 -9 0 -14 -19 -15 -58 -2 -50 1 -63 25 -95 28 -37 63
-55 83 -42 6 3 33 36 60 72 31 40 50 59 50 48 0 -10 18 -35 40 -57 35 -32 48
-38 85 -38 35 0 52 7 93 39 l49 39 12 -24 c6 -14 11 -26 11 -28 0 -2 -72 -48
-178 -113 -16 -10 -21 -20 -17 -34 7 -21 -28 -58 -55 -59 -8 0 -56 25 -105 55
-207 127 -355 182 -500 188 l-72 2 24 65 c14 36 26 67 28 69 2 2 11 -4 20 -13
20 -20 41 -20 94 -1 46 16 152 91 191 136 31 36 38 36 42 2z m993 -271 c38
-30 60 -27 84 11 33 51 24 21 -16 -57 -53 -99 -147 -192 -248 -242 -71 -35
-86 -39 -174 -42 -96 -3 -183 13 -182 33 1 6 41 33 89 61 48 29 114 69 147 91
56 36 60 40 57 73 l-3 34 29 -27 c15 -15 33 -27 39 -27 11 0 109 127 120 157
4 11 9 8 18 -14 7 -16 25 -39 40 -51z m-284 18 c1 21 2 22 6 5 3 -11 9 -24 14
-29 5 -6 9 -14 9 -20 0 -5 -7 -1 -16 10 -15 19 -16 19 -10 -1 5 -19 5 -19 -10
1 -15 22 -16 21 -175 -79 -129 -81 -162 -98 -170 -86 -5 8 -8 17 -6 21 1 5 74
51 162 103 l160 94 17 -22 18 -22 1 25z m-933 -166 c87 -18 182 -60 291 -127
l74 -46 -62 -38 c-95 -58 -173 -110 -201 -133 -25 -20 -29 -20 -110 -6 -106
18 -217 49 -269 77 -49 25 -101 82 -101 110 0 65 65 127 167 159 74 23 115 24
211 4z"/>
<path d="M2574 3261 c-2 -2 -4 -13 -4 -23 0 -13 8 -18 30 -18 l30 0 0 -214 c0
-233 3 -246 56 -246 24 0 24 2 24 86 0 146 26 204 91 204 15 0 29 -7 33 -16 3
-9 6 -64 6 -122 0 -132 5 -152 36 -152 45 0 54 33 47 164 -5 103 -9 122 -29
145 -31 36 -110 38 -148 2 -24 -23 -26 -23 -27 -5 0 10 -1 60 -2 109 l-2 90
-68 0 c-38 0 -70 -2 -73 -4z"/>
<path d="M3202 3243 c2 -13 14 -19 41 -21 l38 -3 -7 -200 c-7 -206 -3 -240 33
-254 26 -9 32 5 17 40 -10 25 -14 76 -14 187 1 169 2 170 52 38 81 -211 95
-244 110 -254 12 -7 21 -7 28 0 6 6 32 71 59 145 27 74 55 148 62 164 l12 30
8 -40 c4 -22 8 -97 8 -167 1 -118 3 -129 23 -148 12 -11 29 -20 38 -20 37 0
40 18 40 251 l0 228 33 3 c20 2 32 8 32 18 0 12 -17 15 -89 15 l-90 0 -42
-130 c-48 -145 -53 -157 -76 -161 -16 -2 -18 4 -96 211 l-30 80 -97 3 c-88 2
-96 1 -93 -15z"/>
<path d="M1630 3085 c-46 -21 -68 -42 -92 -89 -41 -80 -5 -197 72 -236 48 -24
57 -10 26 40 -17 28 -21 50 -20 118 0 103 20 137 79 137 59 0 79 -34 77 -132
-1 -43 -3 -89 -4 -103 -3 -23 0 -25 32 -22 60 6 72 26 68 108 -5 114 -59 178
-160 189 -27 3 -56 0 -78 -10z"/>
<path d="M2365 3091 c-38 -16 -58 -49 -59 -96 -1 -57 30 -90 117 -125 52 -21
62 -29 65 -52 3 -29 -25 -81 -39 -72 -5 3 -9 1 -9 -4 0 -23 34 -20 66 4 37 29
59 86 48 129 -8 33 -56 72 -105 85 -40 11 -79 41 -79 61 0 5 5 7 10 4 6 -3 10
-1 10 4 0 6 9 11 21 11 11 0 17 5 14 10 -3 6 0 10 7 10 24 0 60 -32 74 -66 22
-53 34 -41 34 36 0 63 -2 70 -19 70 -11 0 -22 -4 -26 -9 -3 -6 -18 -6 -38 0
-38 11 -65 11 -92 0z"/>
<path d="M3935 3086 c-38 -17 -90 -72 -104 -109 -33 -86 13 -194 94 -221 59
-21 70 -11 35 32 -16 21 -32 56 -36 80 l-7 42 64 1 c35 0 84 4 108 7 60 9 69
38 31 102 -41 71 -114 97 -185 66z"/>
</g>
</svg>
